<svg xmlns="http://www.w3.org/2000/svg" viewBox="0 0 120 120" width="120" height="120">
  <defs>
    <!-- Enhanced gradient with multiple stops -->
    <linearGradient id="primaryGradient" x1="0%" y1="0%" x2="100%" y2="100%">
      <stop offset="0%" style="stop-color:#1e40af;stop-opacity:1" />
      <stop offset="30%" style="stop-color:#3b82f6;stop-opacity:1" />
      <stop offset="70%" style="stop-color:#1d4ed8;stop-opacity:1" />
      <stop offset="100%" style="stop-color:#1e3a8a;stop-opacity:1" />
    </linearGradient>
    
    <!-- Subtle shadow gradient -->
    <linearGradient id="shadowGradient" x1="0%" y1="0%" x2="100%" y2="100%">
      <stop offset="0%" style="stop-color:#000000;stop-opacity:0.2" />
      <stop offset="100%" style="stop-color:#000000;stop-opacity:0.05" />
    </linearGradient>
    
    <!-- Glow effect -->
    <filter id="glow">
      <feGaussianBlur stdDeviation="3" result="coloredBlur"/>
      <feMerge> 
        <feMergeNode in="coloredBlur"/>
        <feMergeNode in="SourceGraphic"/>
      </feMerge>
    </filter>
    
    <!-- Drop shadow -->
    <filter id="dropshadow" x="-50%" y="-50%" width="200%" height="200%">
      <feDropShadow dx="2" dy="4" stdDeviation="3" flood-color="#1e40af" flood-opacity="0.3"/>
    </filter>
  </defs>
  
  <!-- Background circle with shadow -->
  <circle cx="60" cy="60" r="56" fill="url(#shadowGradient)" />
  
  <!-- Main background circle -->
  <circle cx="60" cy="60" r="54" fill="url(#primaryGradient)" filter="url(#dropshadow)" />
  
  <!-- Inner highlight circle for depth -->
  <circle cx="60" cy="60" r="50" fill="none" stroke="rgba(255,255,255,0.2)" stroke-width="1"/>
  
  <!-- Perfect link symbol in center -->
  <g transform="translate(60, 60)" filter="url(#glow)">
    <!-- Left link part -->
    <path d="M-12 6 L-16 6 A8 8 0 0 1 -16 -10 L-12 -10" 
          stroke="white" 
          stroke-width="4" 
          fill="none" 
          stroke-linecap="round" 
          stroke-linejoin="round"/>
    
    <!-- Right link part -->
    <path d="M12 -10 L16 -10 A8 8 0 0 1 16 6 L12 6" 
          stroke="white" 
          stroke-width="4" 
          fill="none" 
          stroke-linecap="round" 
          stroke-linejoin="round"/>
    
    <!-- Connecting line with perfect positioning -->
    <line x1="-6" x2="6" y1="-2" y2="-2" 
          stroke="white" 
          stroke-width="4" 
          stroke-linecap="round"/>
    
    <!-- Subtle highlight on links for 3D effect -->
    <path d="M-12 6 L-16 6 A8 8 0 0 1 -16 -10 L-12 -10" 
          stroke="rgba(255,255,255,0.6)" 
          stroke-width="2" 
          fill="none" 
          stroke-linecap="round" 
          stroke-linejoin="round"/>
    
    <path d="M12 -10 L16 -10 A8 8 0 0 1 16 6 L12 6" 
          stroke="rgba(255,255,255,0.6)" 
          stroke-width="2" 
          fill="none" 
          stroke-linecap="round" 
          stroke-linejoin="round"/>
    
    <line x1="-6" x2="6" y1="-2" y2="-2" 
          stroke="rgba(255,255,255,0.6)" 
          stroke-width="2" 
          stroke-linecap="round"/>
  </g>
  
  <!-- Outer ring for premium look -->
  <circle cx="60" cy="60" r="54" fill="none" stroke="rgba(255,255,255,0.1)" stroke-width="2"/>
</svg>