<?xml version="1.0" standalone="no"?>
<!DOCTYPE svg PUBLIC "-//W3C//DTD SVG 20010904//EN"
 "http://www.w3.org/TR/2001/REC-SVG-20010904/DTD/svg10.dtd">
<svg version="1.0" xmlns="http://www.w3.org/2000/svg"
 width="500.000000pt" height="500.000000pt" viewBox="0 0 500.000000 500.000000"
 preserveAspectRatio="xMidYMid meet">

<g transform="translate(0.000000,500.000000) scale(0.100000,-0.100000)"
fill="#000000" stroke="none">
<path d="M3095 3827 c-132 -35 -190 -79 -424 -326 -143 -151 -145 -153 -149
-205 -4 -48 -2 -55 27 -83 17 -18 41 -33 54 -35 66 -10 77 -2 267 193 192 196
225 220 316 235 46 7 138 -9 186 -33 47 -24 118 -101 139 -151 37 -86 35 -179
-7 -270 -18 -39 -51 -75 -456 -498 -348 -363 -362 -375 -441 -353 -31 8 -69
37 -156 120 -134 126 -170 145 -227 114 -70 -37 -87 -116 -40 -178 36 -48 245
-233 287 -256 62 -33 150 -47 224 -34 131 23 141 31 558 467 210 219 395 415
410 435 70 88 107 198 107 321 0 155 -44 263 -154 379 -112 117 -207 161 -366
167 -67 2 -123 -1 -155 -9z"/>
<path d="M2281 3064 c-42 -22 -132 -110 -489 -483 -413 -431 -490 -515 -520
-569 -101 -181 -85 -435 39 -604 47 -64 142 -146 205 -177 119 -60 266 -75
397 -42 145 37 185 68 457 353 164 171 211 226 216 253 8 44 -1 68 -37 105
-26 25 -38 30 -80 30 -57 0 -31 23 -319 -279 -186 -195 -227 -225 -324 -241
-63 -10 -153 4 -206 31 -54 28 -125 102 -152 158 -15 31 -23 70 -26 127 -8
145 -13 137 498 672 243 254 449 462 457 462 8 0 42 -26 76 -58 34 -32 73 -66
87 -75 75 -51 179 22 167 117 -5 36 -16 51 -97 127 -103 96 -150 119 -241 119
-39 0 -70 -7 -108 -26z"/>
</g>
</svg>
